<svg xmlns="http://www.w3.org/2000/svg" viewBox="0 0 944.45 944.45"><defs><style>.cls-1{fill:#ceeaf3;}</style></defs><g id="Слой_2" data-name="Слой 2"><g id="Слой_1-2" data-name="Слой 1"><path class="cls-1" d="M917.69,643.77c-36.63.77-55,7.24-65,11.71-6.14,2.74-9.59,5-13.64,7.1C801,681.79,706,724.74,645.39,702.19,600.22,685.4,584.21,636,559.63,599.58c-42.41,33-64,51.44-98.45,59.18-16.38,3.68-59.93,13.46-81.51-10.82-13.53-15.23-11.6-36.16-11.36-38.4,2.56-24,21.91-38.3,32.09-45.8,33.35-24.59,82.44-25.61,120.67-12.23a112.67,112.67,0,0,1,33.14,17.83q13.35-14.45,25.48-30.2,39.69-51.66,42.46-87.9,1.79-23.46-9.26-33.24a42.08,42.08,0,0,0-25.26-10.86q-33.4-2.55-91.6,38.75T382.7,544.46q-44.37,66-71.95,108.88c-30.82,48-59,93.63-159.39,257-1.09,1.79-6.56,7.31-4.56,7.39h0c-2.67-.08-39.1-.91-39.16-.33,0,.38,131-198,178.67-271.61q60-92.62,84.15-137.62t25.85-67q2.71-35.52-10.68-47.28c-3.59-3.13-5.35-4.93-5.31-5.41a3.88,3.88,0,0,1,2-2.71,51.8,51.8,0,0,1,5.61-3.14c2.47-1.24,4.46-2.28,5.95-3.12q5.29-3.89,10.22-7.44a56.29,56.29,0,0,0,6.86-5.56,10.62,10.62,0,0,1,5.22-2.81,23.53,23.53,0,0,1,7.54-.5q10.67.81,16.44,14.12t3.93,37.48q-2.83,37-28.83,77.86Q569.62,362.17,650.64,368.35q14.93,1.14,26.85,13.49t9.87,39.35q-2.94,38.38-35.08,84.89-29.25,42.3-79,82.73c22.1,62.7,50.11,83.26,72.14,90.15,72.07,22.54,205.73-61.83,272.35-70.05V26.73h-891c0,7.33,0,17,0,28.32,0,0,0,6.52,0,13.09,3.55,3.27,8.05,8.1,9.94,11.61,3.61,6.73,57.44,83,122,97,41.44,9,91.95-6.64,133.92-4.09,6.09.37,21.29,1.51,30.29,11.76a41.23,41.23,0,0,1,10.34,28.16q0,25.65-35.64,96.94,27.08-30.64,40.27-44.91t39.92-39.56q26.73-25.29,51-36.71t47.05-11.4q26.35,0,39.2,13.18t12.83,26.73q0,9.28-13.54,25.67A90.78,90.78,0,0,0,504,256.77q-4.64,7.86-6.77,11.76c-1.42,2.62-2.38,3.92-2.85,3.92-2.38,0-3.56-.71-3.56-2.14a21,21,0,0,1,.71-3.56,21.09,21.09,0,0,0,.71-5,46.85,46.85,0,0,0-11-31q-11.06-13.17-33.85-13.18-23.54,0-50.26,15.68t-54.17,45.26q-27.45,29.58-42.41,47.76t-35.64,46Q204.25,494.85,190.7,509.1q-3.57,4.27-6.41,4.28-7.86,0-21.39-17.11Q150.07,482,150.07,477.74q0-8.57,12.12-24.24,3.56-5,39.92-54.17,52-98.37,67-131.51t15-49.54A28.28,28.28,0,0,0,278,200.64a21.88,21.88,0,0,0-4.5-4.65c-9-6.87-21.13-4.79-24.81-4.24-14,2.08-71.16,6.74-110.61-7.32-18.34-6.53-33.79-17.44-57-33.85-1.1-.78-9.53-7.13-26.37-19.83C32.94,114.34,30.76,112.6,28,108.39c-.31-.47-.6-.93-.89-1.41,0,3.64.09,7.68.15,12.27.23,18.7.18,224.94-.48,798.47h891v-274Z"/><path class="cls-1" d="M445.36,560c-10.74,2.64-24,6.05-37,16.83-5.4,4.48-13.56,11.42-17.89,23.66a48.39,48.39,0,0,0-1.9,24.87c.66,3.47,3.66,17.12,12.45,24.19,22.5,18.06,74.25-14,86.11-21.35,16.82-10.43,27.65-20.62,43-34.76q7.1-6.54,13.87-13.4c-9.77-9.85-21.31-17.28-36-20.62C477.62,552.57,445.36,560,445.36,560Z"/><path class="cls-1" d="M941.45,3V941.45H3V3H941.45m3-3H0V944.45H944.45V0Z"/></g></g></svg>