<svg id="Слой_1" data-name="Слой 1" xmlns="http://www.w3.org/2000/svg" viewBox="0 0 944.45 944.45"><defs><style>.cls-1{fill:#2d4756;}</style></defs><path class="cls-1" d="M985.48,711.52c-36.62.77-55,7.24-65,11.71-6.15,2.74-9.6,5-13.64,7.1C868.78,749.54,773.8,792.49,713.18,770,668,753.15,652,703.75,627.42,667.33c-42.41,33-64,51.44-98.45,59.18-16.38,3.68-59.92,13.46-81.51-10.82-13.53-15.22-11.6-36.15-11.36-38.4,2.57-24,21.91-38.3,32.09-45.8,33.36-24.59,82.45-25.61,120.68-12.23A112.61,112.61,0,0,1,622,637.09q13.35-14.45,25.48-30.2,39.69-51.66,42.46-87.9,1.8-23.46-9.25-33.23a42.09,42.09,0,0,0-25.26-10.87q-33.42-2.55-91.61,38.75T450.49,612.21q-44.36,66-71.94,108.88c-30.83,48-59,93.63-159.39,257-1.1,1.79-6.57,7.31-4.56,7.39h0c-2.67-.08-39.1-.91-39.17-.33,0,.38,131-198,178.68-271.61q60-92.62,84.15-137.62t25.85-67q2.72-35.52-10.69-47.28c-3.58-3.13-5.34-4.93-5.31-5.41a3.93,3.93,0,0,1,2-2.71,51.47,51.47,0,0,1,5.6-3.14q3.71-1.86,6-3.12,5.28-3.89,10.22-7.44a58.29,58.29,0,0,0,6.86-5.55,10.6,10.6,0,0,1,5.21-2.82,23.59,23.59,0,0,1,7.55-.5q10.67.81,16.43,14.12t3.93,37.48q-2.82,37-28.82,77.86Q637.4,429.92,718.44,436.1q14.92,1.14,26.85,13.49t9.86,39.35q-2.92,38.38-35.08,84.89-29.25,42.3-79,82.73c22.09,62.7,50.1,83.26,72.14,90.15,72.06,22.54,205.72-61.83,272.34-70.05V94.48h-891c0,7.33,0,17,0,28.32,0,0,0,6.52,0,13.09,3.54,3.27,8.05,8.1,9.93,11.61,3.61,6.74,57.45,83,122,97,41.45,9,92-6.64,133.92-4.09,6.1.37,21.3,1.51,30.3,11.76a41.27,41.27,0,0,1,10.33,28.16q0,25.67-35.64,96.94,27.09-30.64,40.28-44.91T445.6,292.8q26.73-25.29,51-36.71t47-11.4q26.37,0,39.2,13.19t12.84,26.72q0,9.28-13.55,25.67a90.09,90.09,0,0,0-10.33,14.25q-4.65,7.86-6.78,11.76c-1.42,2.62-2.38,3.92-2.85,3.92-2.38,0-3.56-.71-3.56-2.14a21,21,0,0,1,.71-3.56,21.16,21.16,0,0,0,.72-5,46.85,46.85,0,0,0-11-31q-11.07-13.17-33.86-13.18-23.52,0-50.25,15.68t-54.17,45.26q-27.45,29.6-42.41,47.76t-35.64,46Q272,562.6,258.5,576.85q-3.58,4.27-6.42,4.28-7.85,0-21.38-17.11-12.84-14.25-12.83-18.53,0-8.57,12.11-24.24,3.57-5,39.92-54.17,52-98.37,67-131.51t15-49.54a28.21,28.21,0,0,0-6.06-17.64,22.28,22.28,0,0,0-4.49-4.65c-9-6.87-21.13-4.79-24.82-4.24-14,2.08-71.16,6.74-110.6-7.32-18.34-6.53-33.79-17.44-57-33.85-1.1-.78-9.52-7.13-26.37-19.83-21.76-16.4-23.94-18.15-26.75-22.36-.31-.46-.61-.93-.9-1.4,0,3.63.09,7.67.15,12.26.23,18.7.18,224.94-.48,798.47h891v-274Z" transform="translate(-67.79 -67.75)"/><path class="cls-1" d="M513.16,627.77c-10.74,2.64-24,6.05-37,16.83-5.41,4.48-13.56,11.42-17.89,23.66a48.16,48.16,0,0,0-1.9,24.87c.66,3.47,3.65,17.12,12.45,24.19,22.49,18.06,74.25-14,86.11-21.35,16.81-10.43,27.64-20.62,43-34.76q7.08-6.54,13.87-13.39c-9.78-9.86-21.31-17.29-36-20.62C545.42,620.32,513.16,627.77,513.16,627.77Z" transform="translate(-67.79 -67.75)"/><path class="cls-1" d="M1006.24,73.75V1006.2H73.79V73.75h932.45m6-6H67.79V1012.2h944.45V67.75Z" transform="translate(-67.79 -67.75)"/></svg>