<svg xmlns="http://www.w3.org/2000/svg" viewBox="0 0 1000 1000" xml:space="preserve"><path fill="#2d4756" d="M634.6 98.1c5.1 0 10.1.3 14.4.9l216.5 3c28.8 3.8 55.5 33.7 56.1 62.8L903 383.3c.9 42.5-28.1 109.6-59.8 137.9l-412 369.3c-8.3 7.4-19 11.5-30.3 11.5-7.7 0-22.3-2-34.1-15.1L90 577.1c-16.5-18.4-14.9-48 3.5-64.5l411.9-369.3c27.9-24.9 85.8-45.2 129.2-45.2m0-68.6C575 29.5 501 55.3 459.8 92.2L47.9 461.5C1.1 503.4-2.9 576 38.9 622.8l276.8 309.8c22.5 25.1 53.7 37.9 85.1 37.9 27.1 0 54.3-9.6 76-29l411.9-369.3c46.8-41.9 83.9-127.6 82.6-190.4L990 163.2c-1.4-62.8-53.4-121-115.6-129.3L658 31c-7.6-1-15.3-1.5-23.4-1.5zm76.8 212.1c28.9 0 52.3 23.5 52.3 52.4 0 28.8-23.4 52.3-52.3 52.3-28.8 0-52.3-23.5-52.3-52.3 0-28.9 23.5-52.4 52.3-52.4m0-68.5c-66.7 0-120.7 54.2-120.7 121S644.8 415 711.4 415c66.7 0 120.8-54.1 120.8-120.9-.1-66.9-54.1-121-120.8-121z"/></svg>